<svg xmlns="http://www.w3.org/2000/svg" width="300" height="17.343" viewBox="0 0 300 17.343"><path id="Path_233" data-name="Path 233" d="M13.075-2.981A4.338,4.338,0,0,1,15.4-1.493a4.268,4.268,0,0,1,.847,2.722A3.914,3.914,0,0,1,14.59,4.616,8.247,8.247,0,0,1,9.761,5.8H1.68V-11.134h7.6a7.489,7.489,0,0,1,4.488,1.161,3.766,3.766,0,0,1,1.585,3.218,4.184,4.184,0,0,1-.617,2.3,4.019,4.019,0,0,1-1.661,1.474ZM4.1-9.175v5.419H9.06a5.036,5.036,0,0,0,2.867-.69,2.3,2.3,0,0,0,1-2.02,2.3,2.3,0,0,0-1-2.02,5.036,5.036,0,0,0-2.867-.69ZM9.664,3.841a5.728,5.728,0,0,0,3.1-.677A2.357,2.357,0,0,0,13.8,1.035Q13.8-1.8,9.664-1.8H4.1V3.841ZM32.527,5.8,28.874.6Q28.2.648,27.809.648H23.624V5.8H21.2V-11.134h6.6a7.845,7.845,0,0,1,5.177,1.573A5.333,5.333,0,0,1,34.864-5.23,5.664,5.664,0,0,1,33.9-1.891,5.468,5.468,0,0,1,31.148.116L35.164,5.8Zm-4.79-7.21a5.412,5.412,0,0,0,3.508-.99,3.452,3.452,0,0,0,1.21-2.831,3.417,3.417,0,0,0-1.21-2.819,5.46,5.46,0,0,0-3.508-.98H23.624v7.621ZM50.793,1.567h-9L39.93,5.8H37.438l7.669-16.935h2.4L55.2,5.8H52.66ZM49.946-.368l-3.653-8.3L42.64-.368Zm23.54-10.766V5.8H71.5L61.341-6.828V5.8H58.922V-11.134h1.984L71.067,1.5V-11.134Zm6.29,0h7.137A10.318,10.318,0,0,1,91.68-10.07a7.821,7.821,0,0,1,3.23,2.988,8.441,8.441,0,0,1,1.149,4.415A8.441,8.441,0,0,1,94.91,1.749a7.821,7.821,0,0,1-3.23,2.988A10.318,10.318,0,0,1,86.914,5.8H79.777ZM86.769,3.7a7.835,7.835,0,0,0,3.617-.8A5.771,5.771,0,0,0,92.793.66a6.438,6.438,0,0,0,.847-3.327,6.438,6.438,0,0,0-.847-3.327,5.771,5.771,0,0,0-2.407-2.238,7.835,7.835,0,0,0-3.617-.8H82.2V3.7ZM105.906,6a11.59,11.59,0,0,1-3.69-.593,7.577,7.577,0,0,1-2.794-1.536l.9-1.887A7.413,7.413,0,0,0,102.8,3.4a9.111,9.111,0,0,0,3.109.544,5.6,5.6,0,0,0,3.145-.714,2.2,2.2,0,0,0,1.04-1.9,1.871,1.871,0,0,0-.569-1.415,3.8,3.8,0,0,0-1.4-.835q-.835-.29-2.359-.653a24.309,24.309,0,0,1-3.085-.919,5.1,5.1,0,0,1-2.008-1.415,3.779,3.779,0,0,1-.835-2.577,4.359,4.359,0,0,1,.714-2.444,4.9,4.9,0,0,1,2.165-1.742,8.783,8.783,0,0,1,3.6-.653,11.407,11.407,0,0,1,2.952.387,7.853,7.853,0,0,1,2.492,1.113l-.8,1.935a8.759,8.759,0,0,0-2.274-1.028,8.488,8.488,0,0,0-2.371-.351,5.224,5.224,0,0,0-3.085.75A2.3,2.3,0,0,0,102.2-6.586a1.851,1.851,0,0,0,.581,1.415,4.028,4.028,0,0,0,1.44.847,22.493,22.493,0,0,0,2.335.641,23.649,23.649,0,0,1,3.073.919,5.172,5.172,0,0,1,2,1.4,3.7,3.7,0,0,1,.835,2.54,4.324,4.324,0,0,1-.726,2.431,4.862,4.862,0,0,1-2.2,1.742,9.107,9.107,0,0,1-3.632.646ZM120.325-9.03h-5.806v-2.1h14.008v2.1H122.72V5.8h-2.4ZM139.777,5.995a9.468,9.468,0,0,1-4.621-1.125,8.315,8.315,0,0,1-3.23-3.109,8.533,8.533,0,0,1-1.173-4.427,8.533,8.533,0,0,1,1.173-4.427,8.315,8.315,0,0,1,3.23-3.109,9.468,9.468,0,0,1,4.621-1.125,9.418,9.418,0,0,1,4.6,1.125A8.255,8.255,0,0,1,147.6-7.1a8.583,8.583,0,0,1,1.161,4.44,8.583,8.583,0,0,1-1.161,4.44,8.255,8.255,0,0,1-3.218,3.1,9.418,9.418,0,0,1-4.6,1.117Zm0-2.153a6.654,6.654,0,0,0,3.351-.847A6.213,6.213,0,0,0,145.474.66a6.533,6.533,0,0,0,.859-3.327,6.533,6.533,0,0,0-.859-3.327,6.213,6.213,0,0,0-2.347-2.335,6.654,6.654,0,0,0-3.351-.847,6.788,6.788,0,0,0-3.375.847,6.164,6.164,0,0,0-2.371,2.335,6.533,6.533,0,0,0-.859,3.327,6.533,6.533,0,0,0,.86,3.327A6.164,6.164,0,0,0,136.4,2.995a6.788,6.788,0,0,0,3.377.846Zm25.21,1.96L161.333.6q-.677.048-1.064.048h-4.185V5.8h-2.419V-11.134h6.6a7.845,7.845,0,0,1,5.177,1.573,5.333,5.333,0,0,1,1.887,4.331,5.664,5.664,0,0,1-.968,3.339A5.468,5.468,0,0,1,163.607.116L167.624,5.8Zm-4.79-7.21a5.412,5.412,0,0,0,3.5-.992,3.452,3.452,0,0,0,1.21-2.831A3.417,3.417,0,0,0,163.7-8.05a5.46,5.46,0,0,0-3.508-.98h-4.113v7.621ZM188.164,5.8,188.14-6.538,182.019,3.745h-1.113l-6.121-10.21V5.8h-2.323V-11.134h1.984l7.065,11.9,6.968-11.9h1.984L190.486,5.8Zm8.831.145a1.632,1.632,0,0,1-1.645-1.669,1.572,1.572,0,0,1,.484-1.173,1.6,1.6,0,0,1,1.161-.472,1.545,1.545,0,0,1,1.137.46,1.6,1.6,0,0,1,.46,1.185,1.623,1.623,0,0,1-.472,1.2,1.536,1.536,0,0,1-1.125.47Zm11.661.048a11.59,11.59,0,0,1-3.69-.593,7.576,7.576,0,0,1-2.794-1.536l.9-1.887a7.412,7.412,0,0,0,2.48,1.415,9.112,9.112,0,0,0,3.109.544,5.6,5.6,0,0,0,3.145-.714,2.2,2.2,0,0,0,1.04-1.9,1.871,1.871,0,0,0-.569-1.415,3.8,3.8,0,0,0-1.4-.835q-.835-.29-2.359-.653a24.31,24.31,0,0,1-3.085-.919,5.1,5.1,0,0,1-2.008-1.415,3.78,3.78,0,0,1-.835-2.577,4.359,4.359,0,0,1,.714-2.444,4.9,4.9,0,0,1,2.165-1.742,8.783,8.783,0,0,1,3.6-.653,11.407,11.407,0,0,1,2.952.387,7.853,7.853,0,0,1,2.492,1.113l-.8,1.935a8.759,8.759,0,0,0-2.274-1.028,8.488,8.488,0,0,0-2.371-.351,5.224,5.224,0,0,0-3.085.75,2.3,2.3,0,0,0-1.028,1.935,1.851,1.851,0,0,0,.581,1.415,4.028,4.028,0,0,0,1.44.847,22.49,22.49,0,0,0,2.335.641,23.65,23.65,0,0,1,3.073.919,5.172,5.172,0,0,1,2,1.4,3.7,3.7,0,0,1,.835,2.54,4.324,4.324,0,0,1-.726,2.431,4.862,4.862,0,0,1-2.2,1.742,9.107,9.107,0,0,1-3.637.65ZM223.075-9.03h-5.806v-2.1h14.008v2.1H225.47V5.8h-2.4Zm18.75,15.024a7.027,7.027,0,0,1-5.274-1.935,7.648,7.648,0,0,1-1.887-5.565v-9.629h2.419V-1.6q0,5.444,4.766,5.444A4.588,4.588,0,0,0,245.406,2.5a5.9,5.9,0,0,0,1.234-4.1v-9.532h2.347V-1.5A7.64,7.64,0,0,1,247.1,4.071a7.052,7.052,0,0,1-5.275,1.924Zm13.331-17.129h7.137a10.319,10.319,0,0,1,4.766,1.065,7.821,7.821,0,0,1,3.23,2.988,8.441,8.441,0,0,1,1.149,4.415,8.441,8.441,0,0,1-1.149,4.415,7.821,7.821,0,0,1-3.23,2.988A10.319,10.319,0,0,1,262.293,5.8h-7.137ZM262.148,3.7a7.835,7.835,0,0,0,3.617-.8A5.772,5.772,0,0,0,268.172.66a6.438,6.438,0,0,0,.847-3.327,6.438,6.438,0,0,0-.847-3.327,5.772,5.772,0,0,0-2.407-2.238,7.835,7.835,0,0,0-3.617-.8h-4.573V3.7Zm14.2-14.831h2.419V5.8h-2.419ZM292.7,5.995a9.468,9.468,0,0,1-4.621-1.125,8.315,8.315,0,0,1-3.23-3.109,8.532,8.532,0,0,1-1.173-4.427,8.532,8.532,0,0,1,1.173-4.427,8.315,8.315,0,0,1,3.23-3.109,9.468,9.468,0,0,1,4.621-1.125,9.418,9.418,0,0,1,4.6,1.125,8.255,8.255,0,0,1,3.218,3.1,8.583,8.583,0,0,1,1.161,4.44,8.583,8.583,0,0,1-1.161,4.44,8.255,8.255,0,0,1-3.218,3.1,9.418,9.418,0,0,1-4.6,1.117Zm0-2.153a6.653,6.653,0,0,0,3.351-.847A6.213,6.213,0,0,0,298.4.66a6.533,6.533,0,0,0,.859-3.327,6.533,6.533,0,0,0-.859-3.327,6.213,6.213,0,0,0-2.347-2.335,6.653,6.653,0,0,0-3.351-.847,6.788,6.788,0,0,0-3.375.847,6.163,6.163,0,0,0-2.371,2.335,6.533,6.533,0,0,0-.859,3.327A6.533,6.533,0,0,0,286.958.66a6.163,6.163,0,0,0,2.371,2.335,6.788,6.788,0,0,0,3.371.846Z" transform="translate(-1.68 11.335)" fill="#fff"></path></svg>